<svg width="852" height="369" viewBox="0 0 852 369" fill="none" xmlns="http://www.w3.org/2000/svg">
<g filter="url(#filter0_d_2969_5)">
<mask id="path-1-outside-1_2969_5" maskUnits="userSpaceOnUse" x="-13.7764" y="-12.8895" width="848.914" height="389.001" fill="black">
<rect fill="white" x="-13.7764" y="-12.8895" width="848.914" height="389.001"/>
<path d="M24.6764 307.003L20.3811 242.346L131.337 60.0046L217.175 54.7338L228.577 226.356L259.319 224.468L263.826 292.318L233.084 294.206L236.266 342.1L157.214 346.954L154.033 299.06L24.6764 307.003ZM149.973 147.426L100.418 234.225L155.514 230.842L149.973 147.426ZM293.133 187.927C290.093 142.161 297.013 105.536 313.895 78.0496C330.777 50.5636 359.18 35.5948 399.105 33.1433C439.029 30.6917 469.183 42.0649 489.564 67.2628C510.212 92.4444 522.056 127.918 525.096 173.684C528.172 219.982 521.269 256.874 504.387 284.36C487.505 311.846 458.969 326.823 418.778 329.291C378.587 331.758 348.301 320.393 327.919 295.196C307.804 269.981 296.209 234.225 293.133 187.927ZM447.642 178.44C446.051 154.493 442.312 136.421 436.424 124.226C430.518 111.765 419.714 106.016 404.01 106.981C388.306 107.945 378.35 114.968 374.141 128.051C369.915 140.867 368.597 159.249 370.188 183.196C371.814 207.675 375.447 226.154 381.086 238.631C386.974 250.827 397.903 256.434 413.873 255.453C429.843 254.473 439.808 247.582 443.768 234.782C447.977 221.7 449.268 202.919 447.642 178.44ZM571.1 273.451L566.805 208.793L677.761 26.4522L763.599 21.1814L775 192.803L805.743 190.915L810.25 258.766L779.508 260.654L782.69 308.548L703.638 313.402L700.457 265.508L571.1 273.451ZM696.397 113.873L646.842 200.673L701.938 197.289L696.397 113.873Z"/>
</mask>
<path d="M24.6764 307.003L20.3811 242.346L131.337 60.0046L217.175 54.7338L228.577 226.356L259.319 224.468L263.826 292.318L233.084 294.206L236.266 342.1L157.214 346.954L154.033 299.06L24.6764 307.003ZM149.973 147.426L100.418 234.225L155.514 230.842L149.973 147.426ZM293.133 187.927C290.093 142.161 297.013 105.536 313.895 78.0496C330.777 50.5636 359.18 35.5948 399.105 33.1433C439.029 30.6917 469.183 42.0649 489.564 67.2628C510.212 92.4444 522.056 127.918 525.096 173.684C528.172 219.982 521.269 256.874 504.387 284.36C487.505 311.846 458.969 326.823 418.778 329.291C378.587 331.758 348.301 320.393 327.919 295.196C307.804 269.981 296.209 234.225 293.133 187.927ZM447.642 178.44C446.051 154.493 442.312 136.421 436.424 124.226C430.518 111.765 419.714 106.016 404.01 106.981C388.306 107.945 378.35 114.968 374.141 128.051C369.915 140.867 368.597 159.249 370.188 183.196C371.814 207.675 375.447 226.154 381.086 238.631C386.974 250.827 397.903 256.434 413.873 255.453C429.843 254.473 439.808 247.582 443.768 234.782C447.977 221.7 449.268 202.919 447.642 178.44ZM571.1 273.451L566.805 208.793L677.761 26.4522L763.599 21.1814L775 192.803L805.743 190.915L810.25 258.766L779.508 260.654L782.69 308.548L703.638 313.402L700.457 265.508L571.1 273.451ZM696.397 113.873L646.842 200.673L701.938 197.289L696.397 113.873Z" fill="url(#paint0_linear_2969_5)"/>
<path d="M24.6764 307.003L4.71401 308.229L6.03971 328.185L26.0021 326.959L24.6764 307.003ZM20.3811 242.346L3.27342 231.895L0.000388951 237.274L0.418727 243.571L20.3811 242.346ZM131.337 60.0046L130.011 40.0486L119.626 40.6864L114.229 49.5543L131.337 60.0046ZM217.175 54.7339L237.138 53.5081L235.812 33.5521L215.85 34.7778L217.175 54.7339ZM228.577 226.356L208.614 227.581L209.94 247.537L229.902 246.312L228.577 226.356ZM259.319 224.468L279.281 223.242L277.955 203.286L257.993 204.512L259.319 224.468ZM263.826 292.318L265.152 312.274L285.114 311.049L283.788 291.093L263.826 292.318ZM233.084 294.206L231.758 274.25L211.796 275.476L213.122 295.432L233.084 294.206ZM236.266 342.1L237.591 362.056L257.554 360.831L256.228 340.875L236.266 342.1ZM157.214 346.954L137.252 348.18L138.578 368.136L158.54 366.911L157.214 346.954ZM154.033 299.06L173.995 297.834L172.669 277.878L152.707 279.104L154.033 299.06ZM149.973 147.426L169.935 146.2L165.521 79.7595L132.584 137.453L149.973 147.426ZM100.418 234.225L83.0288 224.252L64.6412 256.459L101.744 254.181L100.418 234.225ZM155.514 230.842L156.84 250.798L176.802 249.572L175.477 229.616L155.514 230.842ZM24.6764 307.003L44.6388 305.777L40.3435 241.12L20.3811 242.346L0.418727 243.571L4.71401 308.229L24.6764 307.003ZM20.3811 242.346L37.4889 252.796L148.445 70.4549L131.337 60.0046L114.229 49.5543L3.27342 231.895L20.3811 242.346ZM131.337 60.0046L132.663 79.9607L218.501 74.6899L217.175 54.7339L215.85 34.7778L130.011 40.0486L131.337 60.0046ZM217.175 54.7339L197.213 55.9596L208.614 227.581L228.577 226.356L248.539 225.13L237.138 53.5081L217.175 54.7339ZM228.577 226.356L229.902 246.312L260.644 244.424L259.319 224.468L257.993 204.512L227.251 206.4L228.577 226.356ZM259.319 224.468L239.356 225.694L243.864 293.544L263.826 292.318L283.788 291.093L279.281 223.242L259.319 224.468ZM263.826 292.318L262.5 272.362L231.758 274.25L233.084 294.206L234.41 314.162L265.152 312.274L263.826 292.318ZM233.084 294.206L213.122 295.432L216.303 343.326L236.266 342.1L256.228 340.875L253.046 292.98L233.084 294.206ZM236.266 342.1L234.94 322.144L155.889 326.998L157.214 346.954L158.54 366.911L237.591 362.056L236.266 342.1ZM157.214 346.954L177.177 345.729L173.995 297.834L154.033 299.06L134.07 300.286L137.252 348.18L157.214 346.954ZM154.033 299.06L152.707 279.104L23.3507 287.047L24.6764 307.003L26.0021 326.959L155.358 319.016L154.033 299.06ZM149.973 147.426L132.584 137.453L83.0288 224.252L100.418 234.225L117.807 244.198L167.362 157.399L149.973 147.426ZM100.418 234.225L101.744 254.181L156.84 250.798L155.514 230.842L154.188 210.886L99.0922 214.269L100.418 234.225ZM155.514 230.842L175.477 229.616L169.935 146.2L149.973 147.426L130.01 148.651L135.552 232.068L155.514 230.842ZM313.895 78.0495L330.96 88.5699L330.96 88.5699L313.895 78.0495ZM489.564 67.2628L474.03 79.7849L474.072 79.8371L474.115 79.8891L489.564 67.2628ZM504.387 284.36L487.322 273.839V273.839L504.387 284.36ZM327.919 295.195L312.3 307.612L312.343 307.665L312.385 307.718L327.919 295.195ZM436.424 124.226L418.351 132.711L418.382 132.776L418.413 132.842L436.424 124.226ZM374.141 128.05L393.145 134.393L393.168 134.325L393.19 134.256L374.141 128.05ZM381.086 238.631L362.86 246.786L362.965 247.018L363.076 247.247L381.086 238.631ZM443.768 234.782L424.719 228.577L424.685 228.683L424.652 228.79L443.768 234.782ZM293.133 187.927L313.095 186.701C310.218 143.396 316.971 111.347 330.96 88.5699L313.895 78.0495L296.83 67.5292C277.056 99.7244 269.967 140.927 273.17 189.153L293.133 187.927ZM313.895 78.0495L330.96 88.5699C343.638 67.928 365.257 55.259 400.43 53.0993L399.105 33.1433L397.779 13.1873C353.103 15.9305 317.915 33.1991 296.83 67.5292L313.895 78.0495ZM399.105 33.1433L400.43 53.0993C435.604 50.9395 458.723 60.8613 474.03 79.7849L489.564 67.2628L505.098 54.7408C479.642 23.2685 442.455 10.444 397.779 13.1873L399.105 33.1433ZM489.564 67.2628L474.115 79.8891C491.212 100.741 502.26 131.653 505.134 174.91L525.096 173.684L545.058 172.458C541.851 124.183 529.211 84.1479 505.013 54.6366L489.564 67.2628ZM525.096 173.684L505.134 174.91C508.05 218.805 501.29 251.097 487.322 273.839L504.387 284.36L521.452 294.88C541.247 262.65 548.294 221.158 545.058 172.458L525.096 173.684ZM504.387 284.36L487.322 273.839C474.668 294.443 452.948 307.155 417.452 309.335L418.778 329.291L420.104 349.247C464.99 346.49 500.343 329.249 521.452 294.88L504.387 284.36ZM418.778 329.291L417.452 309.335C381.957 311.514 358.731 301.562 343.454 282.673L327.919 295.195L312.385 307.718C337.87 339.225 375.217 352.003 420.104 349.247L418.778 329.291ZM327.919 295.195L343.538 282.779C326.881 261.9 316.015 230.645 313.095 186.701L293.133 187.927L273.17 189.153C276.403 237.806 288.727 278.063 312.3 307.612L327.919 295.195ZM447.642 178.44L467.604 177.214C465.955 152.379 461.993 131.267 454.434 115.61L436.424 124.226L418.413 132.842C422.63 141.576 426.148 156.606 427.68 179.666L447.642 178.44ZM436.424 124.226L454.497 115.742C449.939 106.123 442.928 98.0933 433.224 92.9306C423.728 87.8782 413.182 86.3799 402.684 87.0245L404.01 106.981L405.335 126.937C410.541 126.617 413.249 127.511 414.558 128.207C415.659 128.793 417.003 129.868 418.351 132.711L436.424 124.226ZM404.01 106.981L402.684 87.0245C392.186 87.6691 381.924 90.4451 373.173 96.6179C364.232 102.926 358.341 111.748 355.092 121.845L374.141 128.05L393.19 134.256C394.15 131.271 395.342 130.04 396.356 129.325C397.562 128.474 400.13 127.256 405.335 126.937L404.01 106.981ZM374.141 128.05L355.137 121.708C349.711 138.162 348.576 159.587 350.225 184.422L370.188 183.196L390.15 181.97C388.618 158.91 390.119 143.572 393.145 134.393L374.141 128.05ZM370.188 183.196L350.225 184.422C351.905 209.704 355.738 231.027 362.86 246.786L381.086 238.631L399.312 230.477C395.156 221.281 391.723 205.647 390.15 181.97L370.188 183.196ZM381.086 238.631L363.076 247.247C367.717 256.859 374.865 264.75 384.632 269.76C394.144 274.641 404.692 276.054 415.199 275.409L413.873 255.453L412.547 235.497C407.084 235.833 404.183 234.933 402.766 234.206C401.603 233.61 400.344 232.599 399.097 230.016L381.086 238.631ZM413.873 255.453L415.199 275.409C425.69 274.765 435.989 272.077 444.763 266.01C453.793 259.766 459.735 250.953 462.884 240.775L443.768 234.782L424.652 228.79C423.841 231.412 422.82 232.444 421.886 233.09C420.695 233.914 418.026 235.161 412.547 235.497L413.873 255.453ZM443.768 234.782L462.817 240.988C468.178 224.323 469.288 202.554 467.604 177.214L447.642 178.44L427.68 179.666C429.249 203.284 427.775 219.077 424.719 228.577L443.768 234.782ZM571.1 273.451L551.138 274.676L552.464 294.632L572.426 293.407L571.1 273.451ZM566.805 208.793L549.697 198.343L546.424 203.722L546.843 210.019L566.805 208.793ZM677.761 26.4522L676.435 6.49622L666.05 7.13394L660.653 16.0019L677.761 26.4522ZM763.599 21.1814L783.562 19.9557L782.236 -0.000331155L762.274 1.22543L763.599 21.1814ZM775.001 192.803L755.038 194.029L756.364 213.985L776.326 212.759L775.001 192.803ZM805.743 190.915L825.705 189.69L824.379 169.734L804.417 170.959L805.743 190.915ZM810.25 258.766L811.576 278.722L831.538 277.496L830.212 257.54L810.25 258.766ZM779.508 260.654L778.182 240.698L758.22 241.923L759.545 261.879L779.508 260.654ZM782.69 308.548L784.015 328.504L803.978 327.278L802.652 307.322L782.69 308.548ZM703.639 313.402L683.676 314.628L685.002 334.584L704.964 333.358L703.639 313.402ZM700.457 265.508L720.419 264.282L719.094 244.326L699.131 245.552L700.457 265.508ZM696.397 113.873L716.359 112.648L711.945 46.2071L679.008 103.9L696.397 113.873ZM646.842 200.673L629.453 190.7L611.065 222.907L648.168 220.629L646.842 200.673ZM701.938 197.289L703.264 217.245L723.226 216.02L721.901 196.064L701.938 197.289ZM571.1 273.451L591.063 272.225L586.768 207.567L566.805 208.793L546.843 210.019L551.138 274.676L571.1 273.451ZM566.805 208.793L583.913 219.243L694.869 36.9025L677.761 26.4522L660.653 16.0019L549.697 198.343L566.805 208.793ZM677.761 26.4522L679.087 46.4082L764.925 41.1375L763.599 21.1814L762.274 1.22543L676.435 6.49622L677.761 26.4522ZM763.599 21.1814L743.637 22.4072L755.038 194.029L775.001 192.803L794.963 191.577L783.562 19.9557L763.599 21.1814ZM775.001 192.803L776.326 212.759L807.068 210.872L805.743 190.915L804.417 170.959L773.675 172.847L775.001 192.803ZM805.743 190.915L785.78 192.141L790.288 259.992L810.25 258.766L830.212 257.54L825.705 189.69L805.743 190.915ZM810.25 258.766L808.924 238.81L778.182 240.698L779.508 260.654L780.834 280.61L811.576 278.722L810.25 258.766ZM779.508 260.654L759.545 261.879L762.727 309.774L782.69 308.548L802.652 307.322L799.47 259.428L779.508 260.654ZM782.69 308.548L781.364 288.592L702.313 293.446L703.639 313.402L704.964 333.358L784.015 328.504L782.69 308.548ZM703.639 313.402L723.601 312.176L720.419 264.282L700.457 265.508L680.494 266.733L683.676 314.628L703.639 313.402ZM700.457 265.508L699.131 245.552L569.775 253.495L571.1 273.451L572.426 293.407L701.783 285.464L700.457 265.508ZM696.397 113.873L679.008 103.9L629.453 190.7L646.842 200.673L664.231 210.646L713.786 123.846L696.397 113.873ZM646.842 200.673L648.168 220.629L703.264 217.245L701.938 197.289L700.612 177.333L645.516 180.717L646.842 200.673ZM701.938 197.289L721.901 196.064L716.359 112.648L696.397 113.873L676.434 115.099L681.976 198.515L701.938 197.289Z" fill="#003463" mask="url(#path-1-outside-1_2969_5)"/>
</g>
<defs>
<filter id="filter0_d_2969_5" x="0" y="0" width="851.538" height="368.137" filterUnits="userSpaceOnUse" color-interpolation-filters="sRGB">
<feFlood flood-opacity="0" result="BackgroundImageFix"/>
<feColorMatrix in="SourceAlpha" type="matrix" values="0 0 0 0 0 0 0 0 0 0 0 0 0 0 0 0 0 0 127 0" result="hardAlpha"/>
<feOffset dx="20"/>
<feComposite in2="hardAlpha" operator="out"/>
<feColorMatrix type="matrix" values="0 0 0 0 0 0 0 0 0 0 0 0 0 0 0 0 0 0 0.25 0"/>
<feBlend mode="normal" in2="BackgroundImageFix" result="effect1_dropShadow_2969_5"/>
<feBlend mode="normal" in="SourceGraphic" in2="effect1_dropShadow_2969_5" result="shape"/>
</filter>
<linearGradient id="paint0_linear_2969_5" x1="389.564" y1="-108.136" x2="426.343" y2="490.828" gradientUnits="userSpaceOnUse">
<stop stop-color="#0D4F89"/>
<stop offset="1" stop-color="#0D98BC"/>
</linearGradient>
</defs>
</svg>
